<svg xmlns="http://www.w3.org/2000/svg" viewBox="0 0 900 760" fill="none">
  <defs>
    <linearGradient id="bg" x1="90" y1="42" x2="808" y2="722" gradientUnits="userSpaceOnUse">
      <stop stop-color="#F0F7FF"/>
      <stop offset="0.58" stop-color="#E9F2FF"/>
      <stop offset="1" stop-color="#FFF1E4"/>
    </linearGradient>
    <linearGradient id="desk" x1="216" y1="350" x2="678" y2="646" gradientUnits="userSpaceOnUse">
      <stop stop-color="#0F3A89"/>
      <stop offset="1" stop-color="#1E7487"/>
    </linearGradient>
  </defs>

  <rect width="900" height="760" rx="44" fill="url(#bg)"/>
  <circle cx="122" cy="106" r="136" fill="#A1D8FF" fill-opacity="0.34"/>
  <circle cx="744" cy="128" r="108" fill="#FFD6B2" fill-opacity="0.42"/>
  <circle cx="746" cy="620" r="164" fill="#F7D4FF" fill-opacity="0.2"/>

  <rect x="170" y="356" width="560" height="256" rx="40" fill="url(#desk)"/>
  <rect x="196" y="384" width="508" height="202" rx="30" fill="#FFFFFF" fill-opacity="0.12"/>

  <rect x="490" y="248" width="170" height="104" rx="26" fill="#FFFFFF"/>
  <rect x="518" y="278" width="82" height="12" rx="6" fill="#A1B3D8"/>
  <rect x="518" y="302" width="110" height="12" rx="6" fill="#D4DEEF"/>
  <rect x="518" y="326" width="72" height="12" rx="6" fill="#D4DEEF"/>

  <rect x="164" y="138" width="188" height="124" rx="30" fill="#FFFFFF"/>
  <path d="M220 232v-46l40-36 40 36v46h-26v-32h-28v32h-26Z" fill="#2A64D8"/>
  <rect x="208" y="108" width="100" height="18" rx="9" fill="#A6B8DD"/>

  <ellipse cx="404" cy="288" rx="94" ry="104" fill="#1B4FAE"/>
  <ellipse cx="424" cy="300" rx="70" ry="82" fill="#FFDABF"/>
  <path d="M342 288c4-70 54-122 118-122 52 0 90 34 104 88-24 16-54 26-86 26-57 0-104-30-136-78v86Z" fill="#113982"/>
  <path d="M286 620c30-132 112-212 216-212s186 80 216 212H286Z" fill="#0C315F"/>
  <path d="M360 478c20 22 40 32 64 32s44-10 64-32v74h-128v-74Z" fill="#F7C29D"/>

  <g transform="translate(514 430)">
    <rect width="184" height="122" rx="24" fill="#FFFFFF"/>
    <rect x="24" y="24" width="110" height="12" rx="6" fill="#94A8D4"/>
    <rect x="24" y="48" width="136" height="12" rx="6" fill="#CBD9EF"/>
    <rect x="24" y="74" width="86" height="12" rx="6" fill="#CBD9EF"/>
  </g>

  <path d="M118 680c74-58 142-88 206-88 74 0 132 20 202 48 74 30 138 44 214 44 60 0 112-8 156-24V760H0v-36c44 0 84-14 118-44Z" fill="#FFFFFF" fill-opacity="0.42"/>
</svg>
