<svg xmlns="http://www.w3.org/2000/svg" viewBox="0 0 1200 900" fill="none">
  <defs>
    <linearGradient id="bg" x1="113" y1="62" x2="1065" y2="859" gradientUnits="userSpaceOnUse">
      <stop stop-color="#11347A"/>
      <stop offset="0.52" stop-color="#1A7688"/>
      <stop offset="1" stop-color="#FF7A18"/>
    </linearGradient>
    <linearGradient id="panel" x1="120" y1="120" x2="880" y2="650" gradientUnits="userSpaceOnUse">
      <stop stop-color="#FFFFFF"/>
      <stop offset="1" stop-color="#E7F1FF"/>
    </linearGradient>
    <linearGradient id="accent" x1="288" y1="200" x2="698" y2="518" gradientUnits="userSpaceOnUse">
      <stop stop-color="#A1D8FF"/>
      <stop offset="1" stop-color="#5B6CFF"/>
    </linearGradient>
  </defs>

  <rect width="1200" height="900" rx="56" fill="url(#bg)"/>
  <circle cx="154" cy="132" r="218" fill="#FFFFFF" fill-opacity="0.09"/>
  <circle cx="1028" cy="152" r="176" fill="#FFFFFF" fill-opacity="0.08"/>
  <circle cx="1060" cy="780" r="220" fill="#FFD2A9" fill-opacity="0.16"/>

  <g transform="translate(126 118)">
    <rect width="760" height="526" rx="44" fill="url(#panel)" fill-opacity="0.96"/>
    <rect x="36" y="34" width="688" height="34" rx="17" fill="#DCE9FF"/>
    <circle cx="70" cy="51" r="8" fill="#7B94C7"/>
    <circle cx="98" cy="51" r="8" fill="#7B94C7"/>
    <circle cx="126" cy="51" r="8" fill="#7B94C7"/>

    <rect x="36" y="92" width="210" height="390" rx="30" fill="#123A88"/>
    <circle cx="96" cy="160" r="32" fill="#A3D6FF"/>
    <rect x="144" y="138" width="60" height="16" rx="8" fill="#89B5FF"/>
    <rect x="72" y="220" width="138" height="14" rx="7" fill="#5A81D5"/>
    <rect x="72" y="250" width="110" height="14" rx="7" fill="#5A81D5"/>
    <rect x="72" y="324" width="138" height="78" rx="24" fill="#2057C7"/>
    <path d="M112 370 142 342l36 32h-18v24h-36v-24h-12Z" fill="#F5F9FF"/>
    <rect x="72" y="424" width="138" height="26" rx="13" fill="#2E6EE7"/>

    <rect x="278" y="92" width="410" height="148" rx="30" fill="#EAF3FF"/>
    <rect x="314" y="126" width="176" height="84" rx="26" fill="url(#accent)"/>
    <path d="M378 188v-26l24-22 24 22v26h-18v-20h-12v20h-18Z" fill="#FFFFFF"/>
    <rect x="522" y="126" width="128" height="16" rx="8" fill="#90A7D9"/>
    <rect x="522" y="158" width="104" height="14" rx="7" fill="#B4C6EC"/>
    <rect x="522" y="184" width="88" height="14" rx="7" fill="#B4C6EC"/>

    <rect x="278" y="270" width="190" height="212" rx="30" fill="#F8FBFF"/>
    <rect x="500" y="270" width="188" height="96" rx="28" fill="#F3F7FF"/>
    <rect x="500" y="386" width="188" height="96" rx="28" fill="#FFF3EA"/>

    <circle cx="342" cy="336" r="30" fill="#FFD5B7"/>
    <path d="M314 334c0-26 20-44 44-44s44 18 44 44v14h-88v-14Z" fill="#1E4FAF"/>
    <path d="M302 456c14-40 48-64 92-64s78 24 92 64H302Z" fill="#1D6B83"/>

    <rect x="532" y="300" width="82" height="14" rx="7" fill="#95A9D6"/>
    <rect x="532" y="328" width="118" height="14" rx="7" fill="#C4D2EB"/>
    <rect x="532" y="416" width="94" height="14" rx="7" fill="#D59354"/>
    <rect x="532" y="444" width="122" height="14" rx="7" fill="#F1B37E"/>
  </g>

  <g transform="translate(848 96)">
    <rect width="236" height="206" rx="34" fill="#FFFFFF" fill-opacity="0.92"/>
    <rect x="30" y="26" width="102" height="14" rx="7" fill="#9DB2DA"/>
    <circle cx="118" cy="112" r="40" fill="#FFD7BE"/>
    <path d="M76 108c0-26 18-48 42-48 24 0 42 22 42 48v16H76v-16Z" fill="#143D8E"/>
    <path d="M58 186c16-42 52-68 96-68s80 26 96 68H58Z" fill="#1E7888"/>
  </g>

  <g transform="translate(902 374)">
    <rect width="190" height="196" rx="32" fill="#FFFFFF" fill-opacity="0.9"/>
    <rect x="28" y="28" width="102" height="12" rx="6" fill="#A9B9DA"/>
    <rect x="28" y="52" width="136" height="12" rx="6" fill="#D0DAEE"/>
    <rect x="28" y="92" width="134" height="70" rx="24" fill="#EAF3FF"/>
    <path d="M74 148v-20l20-18 20 18v20H98v-16h-8v16H74Z" fill="#1E5BC8"/>
  </g>

  <path d="M0 718c108 38 216 57 324 57 126 0 243-26 352-78 78-37 150-58 214-58 118 0 221 43 310 127V900H0V718Z" fill="#0F2C67" fill-opacity="0.28"/>
</svg>
