<svg xmlns="http://www.w3.org/2000/svg" viewBox="0 0 768 768" fill="none">
  <defs>
    <linearGradient id="bg" x1="104" y1="36" x2="674" y2="712" gradientUnits="userSpaceOnUse">
      <stop stop-color="#0F7F91"/>
      <stop offset="0.54" stop-color="#1854BF"/>
      <stop offset="1" stop-color="#FFD074"/>
    </linearGradient>
  </defs>

  <rect width="768" height="768" rx="44" fill="url(#bg)"/>
  <circle cx="148" cy="98" r="126" fill="#FFFFFF" fill-opacity="0.08"/>
  <circle cx="624" cy="140" r="104" fill="#FFFFFF" fill-opacity="0.1"/>
  <rect x="74" y="72" width="620" height="624" rx="40" fill="#FFFFFF" fill-opacity="0.16"/>

  <ellipse cx="392" cy="280" rx="126" ry="128" fill="#382A63"/>
  <ellipse cx="392" cy="294" rx="98" ry="112" fill="#F7D6C0"/>
  <path d="M286 286c0-90 70-154 154-154 72 0 124 42 146 126-32 32-72 48-124 48-74 0-132-32-176-96v76Z" fill="#4A347E"/>
  <path d="M224 664c44-172 130-262 224-262 94 0 180 90 224 262H224Z" fill="#133C7A"/>
  <path d="M334 456c18 22 38 32 58 32s40-10 58-32v82H334v-82Z" fill="#EFB994"/>

  <rect x="514" y="128" width="122" height="78" rx="24" fill="#FFFFFF" fill-opacity="0.92"/>
  <rect x="536" y="150" width="64" height="10" rx="5" fill="#92A8D7"/>
  <rect x="536" y="170" width="82" height="10" rx="5" fill="#D0DCF0"/>

  <rect x="134" y="504" width="144" height="92" rx="26" fill="#FFFFFF" fill-opacity="0.88"/>
  <circle cx="184" cy="550" r="18" fill="#1F6FD6"/>
  <rect x="212" y="542" width="36" height="16" rx="8" fill="#8FB3F2"/>
</svg>
