<svg xmlns="http://www.w3.org/2000/svg" viewBox="0 0 768 768" fill="none">
  <defs>
    <linearGradient id="bg" x1="86" y1="52" x2="682" y2="716" gradientUnits="userSpaceOnUse">
      <stop stop-color="#FF8A2A"/>
      <stop offset="0.46" stop-color="#D4547E"/>
      <stop offset="1" stop-color="#234CA5"/>
    </linearGradient>
  </defs>

  <rect width="768" height="768" rx="44" fill="url(#bg)"/>
  <circle cx="114" cy="112" r="132" fill="#FFFFFF" fill-opacity="0.1"/>
  <circle cx="642" cy="118" r="102" fill="#FFD9B8" fill-opacity="0.18"/>
  <rect x="74" y="72" width="620" height="624" rx="40" fill="#FFFFFF" fill-opacity="0.14"/>

  <ellipse cx="382" cy="270" rx="124" ry="128" fill="#14366D"/>
  <ellipse cx="392" cy="292" rx="96" ry="112" fill="#F8D7C0"/>
  <path d="M284 276c4-88 66-150 150-150 72 0 132 44 152 126-36 36-76 52-132 52-72 0-132-30-170-92v64Z" fill="#0C2D5C"/>
  <path d="M220 662c44-176 130-268 224-268 96 0 182 92 226 268H220Z" fill="#09264F"/>
  <path d="M334 452c20 24 40 34 60 34s40-10 60-34v84H334v-84Z" fill="#EFB690"/>

  <rect x="508" y="122" width="130" height="88" rx="26" fill="#FFFFFF" fill-opacity="0.92"/>
  <rect x="532" y="148" width="64" height="10" rx="5" fill="#8EA7D9"/>
  <rect x="532" y="168" width="86" height="10" rx="5" fill="#D1DCF0"/>
  <rect x="532" y="188" width="58" height="10" rx="5" fill="#D1DCF0"/>

  <rect x="128" y="504" width="142" height="92" rx="26" fill="#FFFFFF" fill-opacity="0.88"/>
  <path d="M168 568v-28l24-20 24 20v28h-16v-20h-16v20h-16Z" fill="#F57A1A"/>
  <rect x="198" y="534" width="34" height="10" rx="5" fill="#FFC78E"/>
</svg>
