<svg xmlns="http://www.w3.org/2000/svg" viewBox="0 0 900 550" fill="none">
  <defs>
    <linearGradient id="bg" x1="84" y1="28" x2="818" y2="528" gradientUnits="userSpaceOnUse">
      <stop stop-color="#F0F7FF"/>
      <stop offset="0.6" stop-color="#E9F2FF"/>
      <stop offset="1" stop-color="#FFF1E4"/>
    </linearGradient>
    <linearGradient id="panel" x1="188" y1="246" x2="708" y2="452" gradientUnits="userSpaceOnUse">
      <stop stop-color="#0F3A89"/>
      <stop offset="1" stop-color="#1E7487"/>
    </linearGradient>
    <linearGradient id="shield" x1="392" y1="214" x2="508" y2="354" gradientUnits="userSpaceOnUse">
      <stop stop-color="#2E67D8"/>
      <stop offset="1" stop-color="#1B4EA9"/>
    </linearGradient>
  </defs>

  <rect width="900" height="550" rx="42" fill="url(#bg)"/>
  <circle cx="116" cy="104" r="116" fill="#A1D8FF" fill-opacity="0.32"/>
  <circle cx="760" cy="98" r="92" fill="#FFD6B2" fill-opacity="0.38"/>
  <circle cx="736" cy="456" r="150" fill="#F7D4FF" fill-opacity="0.2"/>

  <rect x="170" y="234" width="560" height="218" rx="34" fill="url(#panel)"/>
  <rect x="196" y="258" width="508" height="168" rx="26" fill="#FFFFFF" fill-opacity="0.12"/>

  <rect x="150" y="108" width="196" height="114" rx="26" fill="#FFFFFF"/>
  <rect x="182" y="140" width="128" height="12" rx="6" fill="#9FB4DD"/>
  <rect x="182" y="164" width="96" height="12" rx="6" fill="#CEDAF0"/>
  <rect x="182" y="188" width="114" height="12" rx="6" fill="#CEDAF0"/>

  <rect x="560" y="126" width="192" height="120" rx="28" fill="#FFFFFF"/>
  <path d="M656 154c24 0 44 20 44 44v8h-18v-8c0-14-12-26-26-26s-26 12-26 26v8h-18v-8c0-24 20-44 44-44Z" fill="#A4B6DC"/>
  <rect x="614" y="210" width="84" height="14" rx="7" fill="#2A64D8"/>

  <path d="M378 198c27 0 46 12 72 12 25 0 45-12 71-12v64c0 42-26 74-71 90-45-16-72-48-72-90v-64Z" fill="url(#shield)"/>
  <g transform="translate(408 232)">
    <rect x="0" y="34" width="84" height="10" rx="5" fill="#E7F0FF"/>
    <rect x="39" y="12" width="10" height="64" rx="5" fill="#E7F0FF"/>
    <path d="M6 34 24 58H0L6 34Z" fill="#E7F0FF"/>
    <path d="M78 34 84 58H60L78 34Z" fill="#E7F0FF"/>
  </g>

  <g transform="translate(250 330)">
    <rect width="90" height="18" rx="9" fill="#F4C9A6"/>
    <rect x="10" y="16" width="18" height="60" rx="9" fill="#B1784A"/>
    <rect x="62" y="16" width="18" height="60" rx="9" fill="#B1784A"/>
    <rect x="0" y="70" width="90" height="18" rx="9" fill="#8B5B35"/>
  </g>

  <g transform="translate(560 306)">
    <rect width="158" height="100" rx="22" fill="#FFFFFF"/>
    <rect x="22" y="22" width="98" height="10" rx="5" fill="#94A8D4"/>
    <rect x="22" y="44" width="116" height="10" rx="5" fill="#CBD9EF"/>
    <rect x="22" y="66" width="74" height="10" rx="5" fill="#CBD9EF"/>
  </g>

  <path d="M112 500c76-54 148-76 224-76 78 0 156 26 232 52 78 28 154 42 232 42 36 0 70-4 100-12v44H0v-16c40 0 78-12 112-34Z" fill="#FFFFFF" fill-opacity="0.44"/>
</svg>
