<svg xmlns="http://www.w3.org/2000/svg" width="1000" height="675" viewBox="0 0 1000 675" fill="none">
  <defs>
    <linearGradient id="sky" x1="500" y1="0" x2="500" y2="675" gradientUnits="userSpaceOnUse">
      <stop stop-color="#EEF6FF"/>
      <stop offset="1" stop-color="#F8FBFF"/>
    </linearGradient>
    <linearGradient id="ground" x1="500" y1="420" x2="500" y2="675" gradientUnits="userSpaceOnUse">
      <stop stop-color="#DFF4E6"/>
      <stop offset="1" stop-color="#F4FBF6"/>
    </linearGradient>
    <linearGradient id="card" x1="160" y1="108" x2="840" y2="567" gradientUnits="userSpaceOnUse">
      <stop stop-color="#FFFFFF"/>
      <stop offset="1" stop-color="#F4F8FC"/>
    </linearGradient>
  </defs>
  <rect width="1000" height="675" rx="42" fill="url(#sky)"/>
  <rect y="422" width="1000" height="253" fill="url(#ground)"/>
  <circle cx="818" cy="118" r="55" fill="#D8F2E0"/>
  <circle cx="149" cy="132" r="32" fill="#DDEBFF"/>
  <path d="M175 520C238 451 332 412 435 412H585C688 412 782 451 845 520" stroke="#C7D7EA" stroke-width="26" stroke-linecap="round"/>
  <rect x="160" y="108" width="680" height="459" rx="34" fill="url(#card)" stroke="#D7E3EF" stroke-width="8"/>
  <path d="M278 321L500 170L722 321" stroke="#173155" stroke-width="28" stroke-linecap="round" stroke-linejoin="round"/>
  <path d="M315 306V479H685V306" stroke="#173155" stroke-width="24" stroke-linecap="round" stroke-linejoin="round"/>
  <path d="M430 479V372C430 354.327 444.327 340 462 340H538C555.673 340 570 354.327 570 372V479" fill="#E9F3FF" stroke="#173155" stroke-width="24" stroke-linejoin="round"/>
  <rect x="345" y="353" width="58" height="78" rx="16" fill="#E7F6EC" stroke="#173155" stroke-width="20"/>
  <rect x="597" y="353" width="58" height="78" rx="16" fill="#E7F6EC" stroke="#173155" stroke-width="20"/>
  <path d="M242 511H758" stroke="#173155" stroke-width="20" stroke-linecap="round"/>
  <rect x="208" y="476" width="92" height="28" rx="14" fill="#22C55E" opacity="0.22"/>
  <rect x="700" y="476" width="92" height="28" rx="14" fill="#22C55E" opacity="0.22"/>
  <text x="500" y="563" text-anchor="middle" fill="#173155" font-family="Sora, Manrope, Avenir Next, Segoe UI, Arial, sans-serif" font-size="42" font-weight="700" letter-spacing="-1.2">
    Listing image placeholder
  </text>
</svg>
